PathFileType	4	(X/Y/Z)	../Python\walking\Walking09\task.trc
DataRate	CameraRate	NumFrames	NumMarkers	Units	OrigDataRate	OrigDataStartFrame	OrigNumFrames
200.000000	200.000000	4	30	mm	200.000000	250	668
Frame#	Time	CLAV			STRN			RASI			LASI			RTH1			RTH2			RTH3			RTB1			RTB2			RTB3			RHEE			RD5M			RTOE			LTH1			LTH3			LTB1			LTB3			LTOE			LD5M			LPSI			LTB2			LTH2			RPSI			PE02			T10			PE03			PE01			C7			LHEE			RBAK			
		X1	Y1	Z1	X2	Y2	Z2	X3	Y3	Z3	X4	Y4	Z4	X5	Y5	Z5	X6	Y6	Z6	X7	Y7	Z7	X8	Y8	Z8	X9	Y9	Z9	X10	Y10	Z10	X11	Y11	Z11	X12	Y12	Z12	X13	Y13	Z13	X14	Y14	Z14	X15	Y15	Z15	X16	Y16	Z16	X17	Y17	Z17	X18	Y18	Z18	X19	Y19	Z19	X20	Y20	Z20	X21	Y21	Z21	X22	Y22	Z22	X23	Y23	Z23	X24	Y24	Z24	X25	Y25	Z25	X26	Y26	Z26	X27	Y27	Z27	X28	Y28	Z28	X29	Y29	Z29	X30	Y30	Z30	

251	1.25	253.5422210693361	1431.361938476563	118.0980300903321	302.179901123047	1236.96240234375	135.545883178711	266.3734130859376	1017.164306640625	274.6983337402345	281.8702697753907	1035.010986328125	1.160387516021729	257.8959350585939	750.8560180664065	313.2572326660157	211.5269165039064	716.6613769531252	289.1714477539064	243.1029205322267	677.5582275390627	286.6478576660157	219.1503448486329	393.4326171875002	263.571990966797	157.068099975586	397.0041809082034	260.2363586425782	155.3072357177735	346.5874328613282	254.6963653564454	-103.2564239501954	240.6488647460939	165.8335723876954	-34.51593017578126	115.4540634155274	265.9833984375001	12.56042766571046	84.38232421875003	238.0772705078126	227.8788299560548	722.5095825195315	-31.30580329895021	256.8744201660157	651.4964599609377	-12.27665615081788	225.0226898193361	356.4859619140626	15.88152408599854	243.4082641601564	281.4850463867189	29.81567382812501	375.3696289062501	30.56796264648439	102.1878051757813	328.9422607421876	16.68561172485352	51.05142974853518	106.0162963867188	1075.179077148438	87.31620788574222	193.6009216308595	318.774627685547	27.31957626342775	203.2494354248048	680.7503051757815	-20.02456092834473	108.7833938598633	1065.795532226563	187.0296478271485	103.0462112426758	1055.602294921875	162.9144897460938	75.76091003417972	1267.055053710938	124.2374572753907	99.58609008789068	1059.349365234375	111.9447555541993	114.5277786254883	1117.06982421875	140.7957458496094	139.0082244873047	1523.828125	102.1991653442383	159.7047882080079	34.85120010375978	108.7285232543946	116.8414154052735	1446.499389648438	280.6083374023439	
252	1.255	259.4360961914064	1431.943603515625	118.078712463379	307.9179992675782	1237.581665039063	135.239242553711	272.0542297363282	1018.438049316407	274.2683410644532	287.4341735839845	1035.214599609375	0.7482278943061831	265.6966552734376	752.7061767578127	313.7323608398439	219.9775238037111	717.861999511719	289.2182006835939	252.1339111328126	679.1828613281252	286.9066162109376	232.4935455322267	395.1763000488284	263.8413696289064	170.3583679199219	397.8822326660159	260.1544799804689	169.3315582275391	347.3652954101564	255.0898284912111	-87.83783721923831	236.539520263672	166.2777404785157	-15.54657077789307	113.5257873535157	266.7052612304689	32.26413726806642	83.49253082275393	238.7297973632814	231.776580810547	722.7120361328127	-31.28536224365236	260.0104980468751	651.4101562500002	-12.15505123138428	226.2400512695314	356.559539794922	15.91321849822999	244.3338623046876	281.4998168945314	29.91920089721681	375.4421386718751	30.53320312500001	102.2253189086915	328.9462280273439	16.69616699218751	51.07035827636722	111.770378112793	1075.847290039063	87.14472198486331	194.6456909179689	318.9648437500001	27.33643150329591	206.6495361328126	681.1431274414065	-19.98668479919434	114.546615600586	1066.7783203125	186.8015899658204	108.8021392822266	1056.540649414063	162.7791442871094	81.56084442138675	1267.802978515625	123.7006301879883	105.3358383178712	1060.1025390625	111.7775955200196	120.2921524047852	1117.892456054688	140.4026794433594	145.1246490478516	1524.546508789063	102.1310806274415	159.7305603027344	34.98916244506837	108.8375701904297	122.5343246459962	1447.01513671875	280.312225341797	
253	1.26	265.3265686035157	1432.498168945313	118.0534286499024	313.6593322753907	1238.178100585938	134.9249420166016	277.7382812500001	1019.68408203125	273.8235473632814	292.990447998047	1035.384155273438	0.3409243822097779	273.5337524414064	754.568298339844	314.1997070312501	228.4390716552736	719.0862426757815	289.3304443359376	261.156951904297	680.8354492187502	287.2108459472657	245.7812500000001	396.8362426757815	264.0958557128907	183.6028442382813	398.6058654785159	260.1049194335939	183.3610382080079	348.0060424804689	255.4730987548829	-72.2349548339844	232.1015777587892	166.8192901611329	3.670950889587404	111.3133087158204	267.373748779297	52.20034027099612	82.39692687988284	239.2713623046876	235.5832061767579	722.893737792969	-31.26974487304689	263.064178466797	651.3086547851565	-12.04993343353272	227.4086151123048	356.6361389160157	15.94430923461915	245.2194061279298	281.5173339843751	30.00407028198244	375.5154113769532	30.49970436096193	102.2603607177735	328.9511108398439	16.70577239990235	51.08792114257815	117.5097274780274	1076.459716796875	86.99671173095706	195.6520996093751	319.1598510742189	27.37611770629884	209.965301513672	681.5210571289065	-19.92358970642091	120.3078842163087	1067.73388671875	186.6035919189454	114.5501251220704	1057.435791015625	162.6728057861329	87.36119079589847	1268.521240234375	123.1677474975587	111.0766906738282	1060.8115234375	111.641716003418	126.0513610839844	1118.681884765625	140.0336608886719	151.2343902587891	1525.231567382813	102.0615234375001	159.7583312988282	35.13658142089845	108.9447555541993	128.2271575927735	1447.505493164063	280.010711669922	
254	1.265	271.2162475585939	1433.022827148438	118.0227508544922	319.4054260253907	1238.747314453125	134.6056518554688	283.4255676269532	1020.897827148438	273.3665161132814	298.540740966797	1035.517333984375	-0.05894907936453822	281.408172607422	756.4385375976565	314.6571044921876	236.9094848632814	720.3305664062502	289.5083618164064	270.1690063476564	682.5117187500002	287.5584716796876	259.0148925781251	398.4008483886721	264.3349914550782	196.8065185546876	399.1656494140627	260.0921325683595	197.3987579345704	348.5033264160157	255.8440551757814	-56.43339157104495	227.3469390869142	167.4396209716797	23.11866188049317	108.8347473144532	267.992645263672	72.34790802001956	81.10793304443362	239.7201385498048	239.2938690185548	723.0561523437502	-31.25857353210451	266.0419921875001	651.195983886719	-11.96266078948975	228.5349731445314	356.716033935547	15.97512340545655	246.0703125000001	281.5378417968751	30.07170486450197	375.5898437500001	30.46729469299318	102.2933044433594	328.9567871093751	16.71450996398926	51.1041069030762	123.2344131469727	1077.014892578125	86.86912536621097	196.6258239746095	319.360076904297	27.43598365783693	213.2024993896486	681.8862304687502	-19.83683776855469	126.0668029785157	1068.656372070313	186.434555053711	120.2902526855469	1058.2822265625	162.5927429199219	93.16352081298831	1269.207885742188	122.6391067504883	116.8081665039063	1061.472778320313	111.5350952148438	131.8060913085938	1119.433349609375	139.6890563964844	157.3396453857422	1525.880859375	101.9900665283204	159.7879791259766	35.29314422607423	109.0508575439454	133.9220275878907	1447.968994140625	279.7040100097657	
